{
	"asset":{
		"generator":"Khronos glTF Blender I/O v3.5.30",
		"version":"2.0"
	},
	"scene":0,
	"scenes":[
		{
			"name":"Scene",
			"nodes":[
				4
			]
		}
	],
	"nodes":[
		{
			"mesh":0,
			"name":"defaultMaterial"
		},
		{
			"mesh":1,
			"name":"defaultMaterial.001"
		},
		{
			"children":[
				0,
				1
			],
			"name":"Coffee_Cup"
		},
		{
			"children":[
				2
			],
			"name":"Collada visual scene group",
			"rotation":[
				0.70710688829422,
				0,
				0,
				0.7071066498756409
			]
		},
		{
			"children":[
				3
			],
			"name":"Sketchfab_model",
			"rotation":[
				-0.7071067690849304,
				0,
				0,
				0.7071068286895752
			],
			"scale":[
				0.09924954921007156,
				0.09924954921007156,
				0.09924954921007156
			]
		}
	],
	"materials":[
		{
			"doubleSided":true,
			"name":"DefaultMaterial",
			"normalTexture":{
				"index":0
			},
			"occlusionTexture":{
				"index":1
			},
			"pbrMetallicRoughness":{
				"baseColorTexture":{
					"index":2
				},
				"metallicRoughnessTexture":{
					"index":1
				}
			}
		},
		{
			"doubleSided":true,
			"name":"DefaultMaterial.001",
			"normalTexture":{
				"index":3
			},
			"occlusionTexture":{
				"index":4
			},
			"pbrMetallicRoughness":{
				"baseColorTexture":{
					"index":5
				},
				"metallicRoughnessTexture":{
					"index":4
				}
			}
		}
	],
	"meshes":[
		{
			"name":"defaultMaterial",
			"primitives":[
				{
					"attributes":{
						"POSITION":0,
						"TEXCOORD_0":1,
						"NORMAL":2
					},
					"indices":3,
					"material":0
				}
			]
		},
		{
			"name":"defaultMaterial.001",
			"primitives":[
				{
					"attributes":{
						"POSITION":4,
						"TEXCOORD_0":5,
						"NORMAL":6
					},
					"indices":7,
					"material":1
				}
			]
		}
	],
	"textures":[
		{
			"sampler":0,
			"source":0
		},
		{
			"sampler":0,
			"source":1
		},
		{
			"sampler":0,
			"source":2
		},
		{
			"sampler":0,
			"source":0
		},
		{
			"sampler":0,
			"source":1
		},
		{
			"sampler":0,
			"source":2
		}
	],
	"images":[
		{
			"mimeType":"image/png",
			"name":"DefaultMaterial_normal",
			"uri":"DefaultMaterial_normal.png"
		},
		{
			"mimeType":"image/png",
			"name":"DefaultMaterial_metallicRoughness",
			"uri":"DefaultMaterial_metallicRoughness.png"
		},
		{
			"mimeType":"image/jpeg",
			"name":"DefaultMaterial_baseColor",
			"uri":"DefaultMaterial_baseColor.jpg"
		}
	],
	"accessors":[
		{
			"bufferView":0,
			"componentType":5126,
			"count":9004,
			"max":[
				1,
				0.42839598655700684,
				0.9998819828033447
			],
			"min":[
				-1,
				-0.42839598655700684,
				-0.9998819828033447
			],
			"type":"VEC3"
		},
		{
			"bufferView":1,
			"componentType":5126,
			"count":9004,
			"type":"VEC2"
		},
		{
			"bufferView":2,
			"componentType":5126,
			"count":9004,
			"type":"VEC3"
		},
		{
			"bufferView":3,
			"componentType":5123,
			"count":51168,
			"type":"SCALAR"
		},
		{
			"bufferView":4,
			"componentType":5126,
			"count":24,
			"max":[
				0.5806840062141418,
				0.35377299785614014,
				0.5808020234107971
			],
			"min":[
				-0.5806840062141418,
				0.35377299785614014,
				-0.5805659890174866
			],
			"type":"VEC3"
		},
		{
			"bufferView":5,
			"componentType":5126,
			"count":24,
			"type":"VEC2"
		},
		{
			"bufferView":6,
			"componentType":5126,
			"count":24,
			"type":"VEC3"
		},
		{
			"bufferView":7,
			"componentType":5123,
			"count":66,
			"type":"SCALAR"
		}
	],
	"bufferViews":[
		{
			"buffer":0,
			"byteLength":108048,
			"byteOffset":0,
			"target":34962
		},
		{
			"buffer":0,
			"byteLength":72032,
			"byteOffset":108048,
			"target":34962
		},
		{
			"buffer":0,
			"byteLength":108048,
			"byteOffset":180080,
			"target":34962
		},
		{
			"buffer":0,
			"byteLength":102336,
			"byteOffset":288128,
			"target":34963
		},
		{
			"buffer":0,
			"byteLength":288,
			"byteOffset":390464,
			"target":34962
		},
		{
			"buffer":0,
			"byteLength":192,
			"byteOffset":390752,
			"target":34962
		},
		{
			"buffer":0,
			"byteLength":288,
			"byteOffset":390944,
			"target":34962
		},
		{
			"buffer":0,
			"byteLength":132,
			"byteOffset":391232,
			"target":34963
		}
	],
	"samplers":[
		{
			"magFilter":9729,
			"minFilter":9987
		}
	],
	"buffers":[
		{
			"byteLength":391364,
			"uri":"cup.bin"
		}
	]
}
